<svg width="199" height="28" viewBox="0 0 199 28" fill="none" xmlns="http://www.w3.org/2000/svg">
<path d="M8.34 22.24C11.4 22.24 13.64 20.42 14.4 18.48L12.7 17.66C12 19.4 10.44 20.56 8.34 20.56C5.16 20.56 2.92 18.1 2.92 14.56C2.92 11.02 5.16 8.54 8.34 8.54C10.44 8.54 12 9.72 12.7 11.46L14.4 10.64C13.64 8.7 11.4 6.86 8.34 6.86C4.1 6.86 1.02 10.1 1.02 14.56C1.02 19 4.12 22.24 8.34 22.24ZM16.8325 22H18.7325V16.28H22.3325L25.5725 22H27.7725L24.2925 15.94C26.1525 15.3 27.2725 13.76 27.2725 11.7C27.2725 8.9 25.1925 7.1 22.1525 7.1H16.8325V22ZM18.7325 14.62V8.76H22.1525C24.0525 8.76 25.3125 9.94 25.3125 11.68C25.3125 13.44 24.0525 14.62 22.1525 14.62H18.7325ZM36.5938 7.1H34.4138L29.0138 22H31.0138L32.2538 18.44H38.7538L39.9938 22H41.9938L36.5938 7.1ZM32.8338 16.78L35.5138 9.16L38.1738 16.78H32.8338ZM43.9419 22H45.8419V15.44H53.1419V13.78H45.8419V8.76H53.6619V7.1H43.9419V22ZM59.055 22H60.955V8.76H64.975V7.1H54.995V8.76H59.055V22ZM76.1259 7.1L72.1259 13.38L68.1059 7.1H66.0059L71.1859 15.16V22H73.0859V15.16L78.2259 7.1H76.1259ZM95.5698 7.1L90.4498 14.4L85.3298 7.1H83.6098V22H85.5098V10.58L90.3698 17.56H90.5298L95.3898 10.66V22H97.2898V7.1H95.5698ZM100.329 22H110.009V20.34H102.229V15.36H109.609V13.7H102.229V8.76H110.009V7.1H100.329V22ZM115.813 22H117.713V8.76H121.733V7.1H111.753V8.76H115.813V22ZM129.348 7.1H127.168L121.768 22H123.768L125.008 18.44H131.508L132.748 22H134.748L129.348 7.1ZM125.588 16.78L128.268 9.16L130.928 16.78H125.588ZM145.323 7.1L140.923 19.84L136.523 7.1H134.483L139.803 22H142.043L147.363 7.1H145.323ZM149.293 22H158.973V20.34H151.193V15.36H158.573V13.7H151.193V8.76H158.973V7.1H149.293V22ZM161.618 22H163.518V16.28H167.118L170.358 22H172.558L169.078 15.94C170.938 15.3 172.058 13.76 172.058 11.7C172.058 8.9 169.978 7.1 166.938 7.1H161.618V22ZM163.518 14.62V8.76H166.938C168.838 8.76 170.098 9.94 170.098 11.68C170.098 13.44 168.838 14.62 166.938 14.62H163.518ZM180.099 22.24C183.079 22.24 185.119 20.56 185.119 18.1C185.119 16.1 183.899 14.84 181.459 14.1L178.799 13.3C177.339 12.88 176.559 12 176.559 10.86C176.559 9.46 177.739 8.52 179.539 8.52C181.359 8.52 182.719 9.48 183.339 11.24L184.999 10.46C184.319 8.48 182.259 6.86 179.519 6.86C176.659 6.86 174.659 8.56 174.659 10.98C174.659 12.82 175.859 14.32 178.239 15.02L181.019 15.86C182.499 16.3 183.219 16.98 183.219 18.24C183.219 19.62 181.979 20.58 180.099 20.58C178.119 20.58 176.579 19.5 175.879 17.46L174.199 18.2C174.919 20.46 177.179 22.24 180.099 22.24ZM187.555 22H197.235V20.34H189.455V15.36H196.835V13.7H189.455V8.76H197.235V7.1H187.555V22Z" fill="white"/>
</svg>
