<svg width="129" height="17" viewBox="0 0 129 17" fill="none" xmlns="http://www.w3.org/2000/svg">
<path d="M10.02 1.1V12.36L2.12 1.1H0.52V16H2.42V4.66L10.32 16H11.92V1.1H10.02ZM21.9936 16.24C26.2136 16.24 29.5536 13 29.5536 8.54C29.5536 4.1 26.2136 0.859999 21.9936 0.859999C17.7936 0.859999 14.4536 4.08 14.4536 8.54C14.4536 13.02 17.7936 16.24 21.9936 16.24ZM21.9936 14.48C18.7136 14.48 16.3536 11.86 16.3536 8.54C16.3536 5.26 18.6936 2.62 21.9936 2.62C25.3136 2.62 27.6536 5.26 27.6536 8.54C27.6536 11.86 25.2936 14.48 21.9936 14.48ZM35.5395 16H37.4395V10.28H40.8595C43.9195 10.28 45.9795 8.48 45.9795 5.7C45.9795 2.9 43.8995 1.1 40.8595 1.1H35.5395V16ZM37.4395 8.62V2.76H40.8595C42.7595 2.76 44.0195 3.94 44.0195 5.68C44.0195 7.44 42.7595 8.62 40.8595 8.62H37.4395ZM48.313 16H50.213V10.28H53.813L57.053 16H59.253L55.773 9.94C57.633 9.3 58.753 7.76 58.753 5.7C58.753 2.9 56.673 1.1 53.633 1.1H48.313V16ZM50.213 8.62V2.76H53.633C55.533 2.76 56.793 3.94 56.793 5.68C56.793 7.44 55.533 8.62 53.633 8.62H50.213ZM68.2436 16.24C72.4636 16.24 75.8036 13 75.8036 8.54C75.8036 4.1 72.4636 0.859999 68.2436 0.859999C64.0436 0.859999 60.7036 4.08 60.7036 8.54C60.7036 13.02 64.0436 16.24 68.2436 16.24ZM68.2436 14.48C64.9636 14.48 62.6036 11.86 62.6036 8.54C62.6036 5.26 64.9436 2.62 68.2436 2.62C71.5636 2.62 73.9036 5.26 73.9036 8.54C73.9036 11.86 71.5436 14.48 68.2436 14.48ZM87.372 7.98C88.372 7.28 88.912 6.22 88.912 4.96C88.912 2.62 87.212 1.1 84.572 1.1H78.352V16H84.572C87.592 16 89.512 14.34 89.512 11.64C89.512 10.1 88.792 8.76 87.372 7.98ZM80.252 2.74H84.512C85.992 2.74 86.952 3.64 86.952 5C86.952 6.36 85.992 7.26 84.512 7.26H80.252V2.74ZM84.652 14.34H80.252V8.92H84.652C86.392 8.92 87.552 10 87.552 11.64C87.552 13.26 86.392 14.34 84.652 14.34ZM91.7895 16H100.31V14.34H93.6895V1.1H91.7895V16ZM102.551 16H112.231V14.34H104.451V9.36H111.831V7.7H104.451V2.76H112.231V1.1H102.551V16ZM126.835 1.1L121.715 8.4L116.595 1.1H114.875V16H116.775V4.58L121.635 11.56H121.795L126.655 4.66V16H128.555V1.1H126.835Z" fill="white"/>
</svg>
