<svg width="81" height="17" viewBox="0 0 81 17" fill="none" xmlns="http://www.w3.org/2000/svg">
<path d="M0.52 16H2.42V10.28H5.84C8.9 10.28 10.96 8.48 10.96 5.7C10.96 2.9 8.88 1.1 5.84 1.1H0.52V16ZM2.42 8.62V2.76H5.84C7.74 2.76 9 3.94 9 5.68C9 7.44 7.74 8.62 5.84 8.62H2.42ZM13.2934 16H15.1934V10.28H18.7934L22.0334 16H24.2334L20.7534 9.94C22.6134 9.3 23.7334 7.76 23.7334 5.7C23.7334 2.9 21.6534 1.1 18.6134 1.1H13.2934V16ZM15.1934 8.62V2.76H18.6134C20.5134 2.76 21.7734 3.94 21.7734 5.68C21.7734 7.44 20.5134 8.62 18.6134 8.62H15.1934ZM33.2241 16.24C37.4441 16.24 40.7841 13 40.7841 8.54C40.7841 4.1 37.4441 0.859999 33.2241 0.859999C29.0241 0.859999 25.6841 4.08 25.6841 8.54C25.6841 13.02 29.0241 16.24 33.2241 16.24ZM33.2241 14.48C29.9441 14.48 27.5841 11.86 27.5841 8.54C27.5841 5.26 29.9241 2.62 33.2241 2.62C36.5441 2.62 38.8841 5.26 38.8841 8.54C38.8841 11.86 36.5241 14.48 33.2241 14.48ZM43.3325 16H45.2325V9.44H52.5325V7.78H45.2325V2.76H53.0525V1.1H43.3325V16ZM55.2856 16H57.1856V1.1H55.2856V16ZM60.227 16H68.747V14.34H62.127V1.1H60.227V16ZM70.9888 16H80.6688V14.34H72.8888V9.36H80.2688V7.7H72.8888V2.76H80.6688V1.1H70.9888V16Z" fill="white"/>
</svg>
