<svg width="115" height="19" viewBox="0 0 115 19" fill="none" xmlns="http://www.w3.org/2000/svg">
<path d="M15.3778 8.54C15.3778 4.1 12.0378 0.859999 7.81781 0.859999C3.61781 0.859999 0.277813 4.08 0.277813 8.54C0.277813 13.02 3.61781 16.24 7.81781 16.24C8.71781 16.24 9.55781 16.1 10.3578 15.82L11.8978 18.6H13.9778L11.9578 15.06C14.0178 13.72 15.3778 11.38 15.3778 8.54ZM7.81781 14.48C4.53781 14.48 2.17781 11.86 2.17781 8.54C2.17781 5.26 4.51781 2.62 7.81781 2.62C11.1378 2.62 13.4778 5.26 13.4778 8.54C13.4778 10.62 12.5578 12.42 11.0578 13.48L9.07781 10.04H7.11781L9.45781 14.24C8.95781 14.4 8.39781 14.48 7.81781 14.48ZM26.9263 1.1V11.14C26.9263 13.12 25.4063 14.56 23.3863 14.56C21.3463 14.56 19.8463 13.12 19.8463 11.14V1.1H17.9263V11.14C17.9263 14.2 20.0863 16.24 23.3863 16.24C26.6862 16.24 28.8463 14.18 28.8463 11.14V1.1H26.9263ZM31.8911 16H41.5711V14.34H33.7911V9.36H41.1711V7.7H33.7911V2.76H41.5711V1.1H31.8911V16ZM49.4153 16.24C52.3953 16.24 54.4353 14.56 54.4353 12.1C54.4353 10.1 53.2153 8.84 50.7753 8.1L48.1153 7.3C46.6553 6.88 45.8753 6 45.8753 4.86C45.8753 3.46 47.0553 2.52 48.8553 2.52C50.6753 2.52 52.0353 3.48 52.6553 5.24L54.3153 4.46C53.6353 2.48 51.5753 0.859999 48.8353 0.859999C45.9753 0.859999 43.9753 2.56 43.9753 4.98C43.9753 6.82 45.1753 8.32 47.5553 9.02L50.3353 9.86C51.8153 10.3 52.5353 10.98 52.5353 12.24C52.5353 13.62 51.2953 14.58 49.4153 14.58C47.4353 14.58 45.8953 13.5 45.1953 11.46L43.5153 12.2C44.2353 14.46 46.4953 16.24 49.4153 16.24ZM60.0316 16H61.9316V2.76H65.9516V1.1H55.9716V2.76H60.0316V16ZM68.0825 16H69.9825V1.1H68.0825V16ZM80.0639 16.24C84.2839 16.24 87.6239 13 87.6239 8.54C87.6239 4.1 84.2839 0.859999 80.0639 0.859999C75.8639 0.859999 72.5239 4.08 72.5239 8.54C72.5239 13.02 75.8639 16.24 80.0639 16.24ZM80.0639 14.48C76.7839 14.48 74.4239 11.86 74.4239 8.54C74.4239 5.26 76.7639 2.62 80.0639 2.62C83.3839 2.62 85.7239 5.26 85.7239 8.54C85.7239 11.86 83.3639 14.48 80.0639 14.48ZM99.6723 1.1V12.36L91.7723 1.1H90.1723V16H92.0723V4.66L99.9723 16H101.572V1.1H99.6723ZM109.806 16.24C112.786 16.24 114.826 14.56 114.826 12.1C114.826 10.1 113.606 8.84 111.166 8.1L108.506 7.3C107.046 6.88 106.266 6 106.266 4.86C106.266 3.46 107.446 2.52 109.246 2.52C111.066 2.52 112.426 3.48 113.046 5.24L114.706 4.46C114.026 2.48 111.966 0.859999 109.226 0.859999C106.366 0.859999 104.366 2.56 104.366 4.98C104.366 6.82 105.566 8.32 107.946 9.02L110.726 9.86C112.206 10.3 112.926 10.98 112.926 12.24C112.926 13.62 111.686 14.58 109.806 14.58C107.826 14.58 106.286 13.5 105.586 11.46L103.906 12.2C104.626 14.46 106.886 16.24 109.806 16.24Z" fill="white"/>
</svg>
