<svg width="92" height="17" viewBox="0 0 92 17" fill="none" xmlns="http://www.w3.org/2000/svg">
<path d="M7.56 16.24C11.78 16.24 15.12 13 15.12 8.54C15.12 4.1 11.78 0.859999 7.56 0.859999C3.36 0.859999 0.0200001 4.08 0.0200001 8.54C0.0200001 13.02 3.36 16.24 7.56 16.24ZM7.56 14.48C4.28 14.48 1.92 11.86 1.92 8.54C1.92 5.26 4.26 2.62 7.56 2.62C10.88 2.62 13.22 5.26 13.22 8.54C13.22 11.86 10.86 14.48 7.56 14.48ZM26.6684 1.1V11.14C26.6684 13.12 25.1484 14.56 23.1284 14.56C21.0884 14.56 19.5884 13.12 19.5884 11.14V1.1H17.6684V11.14C17.6684 14.2 19.8284 16.24 23.1284 16.24C26.4284 16.24 28.5884 14.18 28.5884 11.14V1.1H26.6684ZM31.6333 16H33.5333V10.28H37.1333L40.3733 16H42.5733L39.0933 9.94C40.9533 9.3 42.0733 7.76 42.0733 5.7C42.0733 2.9 39.9933 1.1 36.9533 1.1H31.6333V16ZM33.5333 8.62V2.76H36.9533C38.8533 2.76 40.1133 3.94 40.1133 5.68C40.1133 7.44 38.8533 8.62 36.9533 8.62H33.5333ZM64.952 1.1L61.612 13.48L58.332 1.1H56.052L52.772 13.52L49.432 1.1H47.452L51.612 16H53.772L57.172 3.54L60.552 16H62.732L66.892 1.1H64.952ZM74.7148 1.1H72.5348L67.1348 16H69.1348L70.3748 12.44H76.8748L78.1148 16H80.1148L74.7148 1.1ZM70.9548 10.78L73.6348 3.16L76.2948 10.78H70.9548ZM89.6767 1.1L85.6767 7.38L81.6567 1.1H79.5567L84.7367 9.16V16H86.6367V9.16L91.7767 1.1H89.6767Z" fill="white"/>
</svg>
